<svg enable-background="new 0 0 40 40" height="40" viewBox="0 0 40 40" width="40" xmlns="http://www.w3.org/2000/svg"><path d="m27.383 9.585c-.393 0-.777.075-1.143.224-1.553.628-2.303 2.404-1.674 3.963.469 1.152 1.576 1.896 2.822 1.896.39 0 .771-.074 1.133-.221.756-.306 1.346-.886 1.662-1.635.318-.749.326-1.573.021-2.326-.466-1.155-1.577-1.901-2.821-1.901zm1.444 3.65c-.165.386-.47.686-.858.844-.187.074-.383.113-.58.113-.644 0-1.215-.383-1.454-.977-.325-.801.062-1.717.86-2.04.188-.076.387-.115.588-.115.642 0 1.214.385 1.456.978.155.387.151.812-.012 1.197z"/><path d="m14.458 21.109c-2.441 0-4.429 1.986-4.429 4.43 0 2.438 1.987 4.422 4.429 4.422 2.44 0 4.426-1.984 4.426-4.422 0-2.443-1.986-4.43-4.426-4.43zm0 7.377c-1.628 0-2.954-1.322-2.954-2.947 0-1.629 1.326-2.954 2.954-2.954s2.951 1.325 2.951 2.954c0 1.625-1.323 2.947-2.951 2.947z"/><path d="m23.614 23.695-1.813-.663c-.106-.313-.233-.618-.379-.916l.811-1.754c.193-.415.127-.909-.168-1.255-.355-.422-.752-.818-1.177-1.177-.212-.179-.482-.279-.762-.279-.167 0-.329.035-.482.102-.003.002-.007.004-.011.006l-1.754.813c-.294-.144-.6-.271-.913-.376l-.67-1.821c-.158-.425-.553-.724-1.005-.763-.549-.048-1.116-.048-1.664 0-.453.039-.848.338-1.008.767l-.665 1.813c-.311.107-.617.234-.915.38l-1.757-.813c-.003-.002-.006-.004-.009-.006-.154-.066-.316-.102-.483-.102-.281 0-.552.101-.763.28-.426.361-.821.757-1.173 1.172-.296.346-.363.838-.172 1.257l.813 1.754c-.144.294-.271.6-.377.914l-1.816.667c-.428.157-.729.553-.769 1.012-.043.55-.043 1.106 0 1.658.039.455.34.851.768 1.007l1.815.668c.106.312.233.617.379.913l-.814 1.763c-.188.409-.122.897.169 1.249.355.421.753.818 1.18 1.18.003.002.005.004.007.006.212.175.479.269.753.269.172 0 .344-.038.494-.109l1.75-.813c.294.146.601.272.917.38l.668 1.815c.16.433.557.732 1.012.765.279.023.558.036.827.036.27 0 .548-.013.828-.036.455-.032.852-.332 1.011-.767l.666-1.81c.31-.107.616-.236.914-.38l1.765.816c.152.067.314.102.482.102.272 0 .54-.094.751-.267.004-.002.008-.006.012-.01.424-.359.82-.755 1.174-1.172.299-.346.367-.842.172-1.257l-.811-1.757c.145-.298.271-.604.377-.917l1.815-.666c.429-.158.729-.554.769-1.009.044-.55.044-1.108-.001-1.664-.038-.452-.341-.847-.768-1.005zm-.688 2.359-1.977.729c-.221.082-.391.263-.455.489-.13.454-.312.896-.54 1.311-.114.205-.122.453-.023.667l.883 1.909c-.23.259-.478.505-.737.735l-1.91-.886c-.212-.098-.46-.088-.666.023-.42.232-.862.415-1.311.548-.226.063-.407.232-.488.453l-.722 1.969c-.354.023-.689.023-1.042 0l-.727-1.973c-.082-.221-.263-.39-.488-.455-.464-.133-.905-.317-1.309-.542-.207-.115-.455-.125-.669-.025l-1.908.884c-.262-.23-.508-.479-.735-.733l.883-1.913c.099-.214.089-.461-.025-.667-.23-.417-.413-.856-.542-1.308-.065-.226-.234-.41-.456-.49l-1.972-.725c-.02-.346-.02-.695 0-1.039l1.976-.727c.22-.08.388-.263.455-.487.133-.463.315-.903.541-1.311.114-.207.124-.455.025-.668l-.883-1.906c.228-.257.475-.503.737-.737l1.91.884c.213.1.461.09.667-.023.418-.232.858-.415 1.307-.543.227-.065.409-.234.49-.456l.723-1.973c.346-.021.696-.021 1.042 0l.727 1.977c.081.224.263.393.489.456.458.132.899.313 1.309.539.205.113.453.123.667.023l1.906-.884c.261.23.507.477.737.737l-.883 1.912c-.099.213-.09.461.024.666.229.415.412.855.543 1.311.064.225.234.407.455.487l1.973.723c.018.345.018.695-.001 1.039z"/><path d="m33.979 13.039c.013-.24.017-.483.004-.726l1.154-1.049c.315-.284.44-.734.313-1.147-.141-.455-.319-.895-.532-1.312-.19-.371-.569-.602-.981-.602-.016 0-.031 0-.039 0l-1.556.052c-.157-.179-.329-.352-.509-.517l.074-1.56c0-.006 0-.014.002-.021.008-.425-.229-.822-.594-1.009-.412-.217-.847-.401-1.302-.553-.109-.034-.225-.054-.341-.054-.303 0-.597.127-.807.35l-1.063 1.139c-.244-.015-.484-.017-.727-.005l-1.049-1.157c-.207-.23-.507-.362-.819-.362-.111 0-.221.017-.328.05-.447.14-.887.316-1.307.53-.385.193-.623.597-.605 1.021l.051 1.558c-.182.162-.354.331-.517.51l-1.559-.075c-.432-.021-.832.21-1.028.588-.218.413-.404.851-.553 1.301-.001.005-.003.011-.005.015-.123.405-.012.84.302 1.14l1.138 1.061c-.016.243-.018.487-.006.729l-1.158 1.049c-.314.29-.435.737-.311 1.138.067.223.145.441.238.672.094.23.19.44.292.64.188.377.566.609.987.609.012 0 .021 0 .037-.002l1.553-.052c.16.182.332.355.512.519l-.075 1.565c-.018.423.214.824.587 1.021.399.212.836.398 1.303.554.111.038.229.056.346.056.307 0 .601-.129.807-.354l1.062-1.134c.242.014.484.016.729.004l1.047 1.151c.21.232.51.364.82.364.109 0 .22-.015.325-.048.45-.14.892-.318 1.304-.528.385-.189.625-.592.611-1.027l-.052-1.552c.181-.16.354-.333.517-.512l1.559.075c.019.002.036.002.055.002.414 0 .786-.227.975-.59.217-.407.403-.843.553-1.299.133-.403.02-.854-.293-1.15zm-1.493-.95c.043.386.039.773-.008 1.15-.03.234.057.469.228.63l1.226 1.148c-.081.222-.172.435-.273.64l-1.675-.082c-.236-.01-.461.09-.608.272-.246.304-.525.578-.828.816-.185.145-.289.369-.281.605l.057 1.671c-.21.098-.427.187-.646.264l-1.129-1.245c-.141-.153-.34-.24-.545-.24-.027 0-.055 0-.08.004-.393.042-.781.038-1.154-.008-.232-.03-.469.056-.629.229l-1.146 1.224c-.225-.082-.438-.175-.643-.272l.081-1.677c.012-.236-.091-.461-.273-.609-.303-.246-.575-.522-.81-.822-.145-.188-.37-.292-.607-.286l-1.674.058c-.047-.104-.094-.209-.14-.322-.045-.109-.085-.218-.123-.323l1.243-1.129c.174-.158.264-.391.237-.623-.04-.38-.036-.772.009-1.162.028-.232-.057-.465-.229-.626l-1.225-1.145c.08-.22.17-.433.272-.641l1.68.079c.235.012.46-.09.608-.272.24-.296.52-.572.826-.816.184-.145.287-.367.279-.602l-.055-1.675c.211-.097.428-.185.646-.262l1.127 1.245c.159.173.39.261.622.238.384-.041.776-.039 1.164.008.232.026.466-.058.624-.23l1.144-1.222c.219.08.435.173.646.272l-.08 1.675c-.012.234.088.459.268.607.311.251.582.532.814.828.146.184.369.288.605.282l1.678-.056c.096.209.184.424.261.647l-1.245 1.129c-.174.159-.263.391-.239.626z"/></svg>