<svg viewBox="0 0 72 72" xmlns="http://www.w3.org/2000/svg"><path d="m22.8352 18.6207s-1.175-.9644 0-1.867c0 0-2.4338-1.4384-1.2589-2.5552.7295-.6934 7.2842-4.0618 14.2342-4.8293 4.2443-.4688 9.3807.0325 12.3425 2.7054 0 0 3.6155 2.8307.3425 4.2368 0 0 1.9302 1.9303 0 2.3499z" fill="#3f3f3f"/><path d="m56.4341 59.1148s2.1786-15.0289-10.8927-15.0289c-3.4768 2.3083-6.4554 3.9036-9.8034 3.8968h.1362c-3.3481.0068-6.3267-1.5885-9.8034-3.8968-13.0713 0-10.8927 15.0289-10.8927 15.0289" fill="#fff"/><path d="m44.7757 43.9859c-3.8028 2.5353-5.8484 3.599-10.7221 4.3051 15.6708.4936 15.6708 6.022 16.5852 10.8207h6.1338s2.3993-15.1258-11.9969-15.1258z" fill="#d0cfce"/><path d="m50.0103 53.1724s-3.9.82-6.18-3.07l-.34-.59c.21-.37.34-.78.37-1.2h.01l1.04.15c4.49.75 5.1 4.71 5.1 4.71z" fill="#ea5a47"/><path d="m43.4903 49.5124c-.22.4-.53.74-.93 1.01-.1.07-.21.13-.33.19-.27.14-.56.23-.85.27-.19.04-.39.06-.58.04-1.06-.02-2.08-.62-2.6-1.64l-.48-1.09v-.01c1.85-.34 3.64-1.2 5.54-2.37v.01l.3.77c.26.52.36 1.08.3 1.62-.03.42-.16.83-.37 1.2z" fill="#ea5a47"/><path d="m43.2103 51.1124c2.87 3.06.43 6.44.43 6.44s-3.56-1.91-2.45-5.91l.19-.64v-.02c.29-.04.58-.13.85-.27.12-.06.23-.12.33-.19l.09.15z" fill="#ea5a47"/><path d="m40.8003 51.0224-.02.34c-13.41 3.47-13.75-6.5-13.75-6.5 3.15 2.1 5.85 3.56 8.87 3.59h.13c.57-.01 1.13-.06 1.69-.17v.01l.48 1.09c.52 1.02 1.54 1.62 2.6 1.64z" fill="#ea5a47"/><path d="m16.2521 59.5761c-.4557-.3472-.8796-.7068-1.2731-1.0768-.2702-.2541-.526-.5131-.7679-.7764-3.3407-3.6362-4.0105-8.0778-3.0519-11.5453 1.1291-4.0839 5.4064-6.472 9.5509-5.3186 1.9615.5459 7.9171 1.6131 8.9643 11.5648 3.846-1.1751 7.7742 1.9024 5.029 5.9617-.4138.6119-.9792 1.246-1.7194 1.8913-3.7982 3.3112-11.6399 3.1785-16.7319-.7007z" fill="#f1b31c"/><path d="m17.8514 46.2534c-.2943 1.0646-1.397 1.6888-2.4606 1.3948-1.0636-.2941-1.6891-1.3961-1.3947-2.4607.294-1.0636 1.397-1.6888 2.4606-1.3947 1.0636.294 1.6888 1.397 1.3947 2.4606" fill="#ea5a47"/><path d="m23.6283 57.856c-.2943 1.0646-1.3971 1.6888-2.4607 1.3948-1.0636-.2941-1.689-1.3961-1.3947-2.4607.2941-1.0636 1.397-1.6888 2.4606-1.3947s1.6888 1.397 1.3948 2.4606" fill="#61b2e4"/><path d="m60.275 44.1046-3.8708 14.9676c-.2929 1.1327-1.4505 1.8146-2.5832 1.5217-.5615-.1452-1.0243-.5128-1.297-.9758-.2728-.4631-.3699-1.0459-.2247-1.6075l3.8707-14.9676z" fill="#3f3f3f"/><path d="m61.1538 40.7064-.8788 3.3982-4.105-1.0616.8788-3.3982 1.0359.2679 2.0525.5308z" fill="#9b9b9a"/><path d="m61.3082 31.8014s3.9546 4.359-.4411 8.0562l-.7299.5859-2.0525-.5308-.4802-.8989c-1.9641-5.4658 3.7037-7.2124 3.7037-7.2124z" fill="#a57939"/><path d="m18.3218 53.1212c-.2943 1.0645-1.397 1.6888-2.4606 1.3947-1.0636-.294-1.6891-1.3961-1.3948-2.4606.2941-1.0636 1.3971-1.6888 2.4607-1.3948 1.0636.2941 1.6888 1.3971 1.3947 2.4607" fill="#fcea2b"/><path d="m49.1652 37.8816h1.2089c5.7976 0-3.4775-19.2203-3.4775-19.2203l-8.6575-.0233h-4.4579l-8.6576.0233s-10.1254 19.2203-4.3279 19.2203h2.0593" fill="#f4aa41"/><path d="m47.1491 28.8394c0-4.7072-4.4312-3.0674-13.3679-10.2014-4.4504 4.4503-9.1554 6.7175-9.3092 10.2014-.3452 7.8201 5.0764 14.1733 11.3386 14.1733 6.2621 0 11.3385-6.3456 11.3385-14.1733z" fill="#fcea2b"/><path d="m41.9642 27.0109c0 1.1045-.8965 2-2 2s-2-.8955-2-2c0-1.1035.8965-2 2-2s2 .8965 2 2"/><path d="m33.9642 27.0109c0 1.1045-.8965 2-2 2s-2-.8955-2-2c0-1.1035.8965-2 2-2s2 .8965 2 2"/><path d="m35.9641 37.0133c-1.1519 0-2.3037-.2861-3.4473-.8579-.4941-.247-.6943-.8476-.4473-1.3418.2466-.4936.8462-.6943 1.3418-.4472 1.7178.8593 3.3877.8593 5.1055 0 .4946-.2471 1.0947-.0464 1.3418.4472.2471.4942.0469 1.0948-.4473 1.3418-1.1435.5718-2.2954.8579-3.4472.8579z"/><path d="m35.9639 43.5449c-6.8028 0-12.3379-6.8066-12.3379-15.1733 0-1.1133.0986-2.2251.292-3.3047l1.9687.3535c-.1728.9634-.2607 1.9561-.2607 2.9512 0 7.2641 4.6377 13.1733 10.3379 13.1733 5.7011 0 10.3388-5.9092 10.3388-13.1733 0-.8936-.0713-1.7881-.2109-2.6582l1.9746-.3174c.1572.9746.2363 1.9761.2363 2.9756 0 8.3667-5.5351 15.1733-12.3388 15.1733z"/><path d="m48.4951 19.6611c-.001 0-.001 0-.0019 0l-25.6602-.0405c-.2305-.0005-.4541-.0806-.6328-.227-.1504-.1241-.9033-.7925-.8867-1.7852.0029-.1841.0332-.4043.124-.6406-.5225-.4561-1.082-1.1133-1.1699-1.8814-.0674-.5957.1523-1.1684.6201-1.6123 1.0244-.9751 7.9111-4.3369 14.8135-5.0991 2.6396-.2896 9.1963-.5854 13.122 2.9575.335.2588 2.2598 1.8677 2.0235 3.6875-.0596.4585-.2744 1.0405-.8858 1.564.294.5083.5079 1.1406.3233 1.769-.1104.376-.4619 1.043-1.5772 1.2852-.0693.0151-.1406.0229-.2119.0229zm-25.1377-2.0395 24.9131.039c-.1123-.205-.3144-.4736-.4824-.642-.2344-.2344-.3379-.5699-.2754-.8956.0625-.3256.2832-.5996.5879-.7304.2168-.0928.7246-.3404.7627-.6294.0654-.4976-.7442-1.4404-1.3281-1.9024-2.3594-2.1254-6.6788-3.0429-11.6153-2.4975-6.7558.7461-13.0303 4.0381-13.6455 4.5527.1094.2427.6113.7061 1.0694.9771.2861.1689.4697.4687.4892.8003.0205.3315-.126.6513-.3887.8535-.038.0288-.0664.0542-.0869.0747z"/><path d="m35.8105 10.3691c-.5527 0-1-.4477-1-1v-3.0854c0-.5523.4473-1 1-1 .5528 0 1 .4477 1 1v3.0854c0 .5523-.4472 1-1 1z"/><path d="m47.1563 26.5425c-.0821.0005-.1651-.0098-.2481-.0313-7.4531-1.9033-11.5-4.9697-13.0898-6.4218-1.4082 1.4848-4.71 4.6176-8.834 6.1997-.5166.1997-1.0948-.0606-1.292-.5752-.1983-.5161.0596-1.0943.5752-1.292 4.9092-1.8833 8.708-6.3794 8.7461-6.4248.1894-.2266.4697-.3579.7656-.3584h.002c.2949 0 .5742.1294.7646.355.0332.0395 3.7148 4.2446 12.8564 6.58.5352.1367.8584.6812.7217 1.2163-.1152.4522-.5224.7525-.9677.7525z"/><g style="fill:none;stroke:#000;stroke-linecap:round;stroke-linejoin:round;stroke-miterlimit:10;stroke-width:2"><path d="m42.2303 50.7124c.12-.06.23-.12.33-.19.4-.27.71-.61.93-1.01.21-.37.34-.78.37-1.2.06-.54-.04-1.1-.3-1.62l-.3-.77"/><path d="m42.2303 50.7124c-.27.14-.56.23-.85.27-.19.04-.39.06-.58.04-1.06-.02-2.08-.62-2.6-1.64l-.48-1.09"/><path d="m50.9303 46.4524c-1.45-.97-3.4-1.59-6.03-1.59-.56.37-1.1.72-1.64 1.05-1.9 1.17-3.69 2.03-5.54 2.37-.56.11-1.12.16-1.69.17h-.13c-3.02-.03-5.72-1.49-8.87-3.59"/><path d="m42.6503 50.6724.56.44c2.87 3.06.43 6.44.43 6.44s-3.56-1.91-2.45-5.91l.19-.64"/><path d="m27.0303 44.8624s.34 9.97 13.75 6.5"/><path d="m43.4703 49.4724.02.04.34.59c2.28 3.89 6.18 3.07 6.18 3.07s-.61-3.96-5.1-4.71l-1.04-.15"/></g><path d="m25.6602 63.626c-3.4844 0-7.1836-1.0977-10.0147-3.2539 0-.001 0-.001-.001-.001-.4795-.3672-.9345-.752-1.3515-1.1436-.2871-.2714-.5606-.5468-.8184-.8281-3.2402-3.5264-4.4668-8.1953-3.2793-12.4883.6123-2.2158 2.0586-4.0634 4.0723-5.2021 2.0488-1.1592 4.4297-1.4463 6.7109-.8135l.3106.084c2.1884.5791 7.8691 2.082 9.2412 11.2441 2.0898-.2578 4.1474.4961 5.2636 2.0069 1.1954 1.6181 1.0997 3.7011-.2626 5.7158-.4776.706-1.1133 1.4082-1.8907 2.084-1.9951 1.7402-4.9043 2.5957-7.9804 2.5957zm-8.8018-4.8457c4.5566 3.4717 11.9297 3.8271 15.4687.7422.6465-.5625 1.167-1.1329 1.5479-1.6963.8711-1.2891.9814-2.4991.3096-3.4073-.8135-1.1005-2.5869-1.5351-4.2178-1.039-.2861.0879-.5967.043-.8438-.1221-.249-.165-.4111-.4326-.4423-.7295-.9239-8.7685-5.8145-10.0625-7.9034-10.6152l-.3349-.0899c-1.7647-.4912-3.6074-.2685-5.1895.626-1.5488.876-2.6601 2.2949-3.1299 3.9951-1.0019 3.6231.0538 7.587 2.8243 10.6016.2265.2461.4648.4883.7168.7256.3662.3447.7685.6846 1.1943 1.0088z"/><path d="m58.0847 39.9127-.4802-.8989c-1.9641-5.4658 3.7037-7.2124 3.7037-7.2124s3.9546 4.359-.4411 8.0562l-.7299.5859" style="fill:none;stroke:#000;stroke-linecap:round;stroke-linejoin:round;stroke-miterlimit:10;stroke-width:2"/><path d="m60.275 44.1046-3.8708 14.9676c-.2929 1.1327-1.4505 1.8146-2.5832 1.5217-.5615-.1452-1.0243-.5128-1.297-.9758-.2728-.4631-.3699-1.0459-.2247-1.6075l3.8707-14.9676" style="fill:none;stroke:#000;stroke-linecap:round;stroke-linejoin:round;stroke-miterlimit:10;stroke-width:2"/><path d="m60.275 44.1046.8788-3.3982-1.0166-.2629-2.0525-.5308-1.0359-.2679-.8788 3.3982z" style="fill:none;stroke:#000;stroke-linecap:round;stroke-linejoin:round;stroke-miterlimit:10;stroke-width:2"/><path d="m23.0615 37.9814h-2.1806c-1.3116 0-1.9864-.6748-2.3213-1.2402-2.2168-3.7441 4.3486-16.1182 5.6875-18.5605.1748-.3199.5097-.5186.874-.5196l8.6572-.0229h.003c.5507 0 .998.4458 1 .9975.0009.5523-.4454 1.001-.9971 1.0025l-8.0645.0215c-3.0449 5.6684-6.6084 14.0883-5.4394 16.062.0576.0976.1543.2597.6006.2597h2.1806c.5518 0 1 .4473 1 1 0 .5528-.4482 1-1 1z"/><path d="m50.374 37.9814h-1.789c-.5528 0-1-.4472-1-1 0-.5527.4472-1 1-1h1.789c.4356 0 .5664-.1523.6543-.2949 1.2324-2.0068-1.957-10.3828-4.75-16.0268l-8.042-.0215c-.5517-.0015-.998-.4502-.997-1.0025.0019-.5517.4492-.9975 1-.9975h.0029l8.6572.0229c.376.001.7197.2129.8897.5484 1.2314 2.4326 7.2578 14.7573 4.9423 18.5239-.3496.5693-1.0429 1.248-2.3574 1.248z"/></svg>